<?xml version="1.0" encoding="utf-8"?>
<!-- Generator: Adobe Illustrator 23.0.1, SVG Export Plug-In . SVG Version: 6.00 Build 0)  -->
<svg version="1.1" id="Calque_1" xmlns="http://www.w3.org/2000/svg" xmlns:xlink="http://www.w3.org/1999/xlink" x="0px" y="0px"
	 viewBox="0 0 380 160" style="enable-background:new 0 0 380 160;" xml:space="preserve">
<style type="text/css">
	.st0{fill:#FFFFFF;}
	.st1{fill:none;stroke:#FFFFFF;stroke-miterlimit:10;}
	.st2{fill:none;stroke:#FFFFFF;stroke-width:0.5;stroke-miterlimit:10;}
</style>
<g>
	<path class="st0" d="M54.8,82.7c0-4.1-1.7-7.5-5.1-10c-3.4-2.5-9.2-5.1-17.4-7.8c-8.2-2.5-14.2-5.1-18-7.9
		c-3.9-2.8-5.8-6.9-5.8-12.4c0-5.4,2.3-9.8,6.8-13.2c4.5-3.4,10.3-5,17.2-5c7.2,0,13,1.9,17.4,5.6c4.4,3.7,6.5,8.9,6.4,15.6
		l-0.1,0.3H54c0-5.4-2-9.9-6-13.4c-4-3.5-9.1-5.3-15.5-5.3C26,29,20.8,30.5,17,33.6c-3.8,3.1-5.8,6.7-5.8,10.9s1.5,7.6,4.7,10.2
		c3.1,2.6,8.9,5.1,17.3,7.6c8.2,2.6,14.3,5.3,18.4,8.1c4,2.8,6,6.9,6,12.3c0,5.5-2.4,9.9-7.1,13.2c-4.7,3.3-10.6,5-17.6,5
		c-7.3,0-13.5-1.7-18.8-5.1c-5.2-3.4-7.8-8.7-7.6-16l0.1-0.3h2.2c0,6.6,2.4,11.3,7.3,14.3c4.8,3,10.4,4.5,16.8,4.5
		c6.3,0,11.6-1.5,15.7-4.4S54.8,87.2,54.8,82.7z"/>
	<path class="st0" d="M77.1,31.4V46h13.2v2.7H77.1v37.2c0,4.4,0.7,7.6,2.2,9.4c1.5,1.9,3.5,2.8,5.9,2.8c0.9,0,1.7,0,2.4-0.1
		c0.7-0.1,1.7-0.2,2.9-0.3l0.5,2.4c-0.8,0.3-1.7,0.4-2.6,0.5s-1.9,0.1-3,0.1c-3.6,0-6.4-1.2-8.2-3.5c-1.9-2.4-2.8-6.2-2.8-11.4V48.7
		h-10V46h10V31.4H77.1z"/>
	<path class="st0" d="M136.8,89.9c-1.9,3.3-4.6,5.9-8.3,7.9c-3.7,2-8.1,3.1-13.4,3.1c-5,0-8.9-1.4-11.8-4.1S99,90.3,99,85.7
		c0-4.5,2.1-8.3,6.4-11.3c4.3-3.1,9.6-4.6,16-4.6h15.4v-7.9c0-4.5-1.4-8-4.3-10.5c-2.9-2.5-6.9-3.8-12.1-3.8
		c-4.9,0-8.8,1.2-11.8,3.5c-3,2.4-4.5,5.4-4.5,9.1l-2.2-0.1l-0.1-0.2c-0.2-4.2,1.4-7.7,4.9-10.6c3.4-2.9,8-4.4,13.7-4.4
		c5.8,0,10.4,1.5,13.9,4.4c3.5,2.9,5.2,7.1,5.2,12.6v27c0,1.9,0.1,3.7,0.3,5.5c0.2,1.8,0.6,3.6,1.1,5.3h-3c-0.4-2.4-0.7-4.1-0.9-5.3
		c-0.1-1.2-0.2-2.4-0.2-3.8V89.9z M115.1,98.2c5.3,0,9.9-1.2,13.6-3.5c3.7-2.4,6.4-5.7,8.1-10.1V72.5h-15.2
		c-5.6,0-10.3,1.3-14.1,3.9c-3.8,2.6-5.7,5.7-5.7,9.5c0,3.6,1.2,6.6,3.7,8.9C107.8,97.1,111,98.2,115.1,98.2z"/>
	<path class="st0" d="M180.5,47.9l-3.5-0.3c-4.8,0-8.7,1.6-11.7,4.7c-3,3.1-5,7.2-5.8,12.3v35.3h-2.7V46h2.2l0.5,9.4v1.8
		c1.5-3.8,3.7-6.8,6.7-9c3-2.1,6.6-3.2,10.9-3.2c0.8,0,1.5,0.1,2.1,0.2c0.6,0.1,1.2,0.2,1.7,0.4L180.5,47.9z"/>
	<path class="st0" d="M192.3,99.8V27.4h19.1c7.5,0,13.3,1.5,17.5,4.6c4.1,3.1,6.2,7.7,6.2,13.9c0,4-1,7.5-3,10.3
		c-2,2.9-4.8,4.8-8.4,5.7l0,0.3c4.3,0.6,7.9,2.5,10.8,5.9c2.9,3.4,4.4,7.3,4.4,11.7c0,6.3-2,11.2-6.1,14.7s-9.5,5.2-16.2,5.2H192.3z
		 M194.9,61.3h18.3c6.3-0.1,11-1.4,14.2-4c3.2-2.6,4.8-6.5,4.8-11.6c0-5.2-1.8-9.1-5.3-11.7c-3.5-2.6-8.7-4-15.6-4h-16.4V61.3z
		 M194.9,64v33.1h21.4c6.1,0,10.9-1.5,14.4-4.5c3.5-3,5.3-7.2,5.3-12.6c0-4.8-1.8-8.6-5.3-11.5c-3.5-2.9-8.3-4.4-14.4-4.4H194.9z"/>
	<path class="st0" d="M324.5,47.9l-3.5-0.3c-4.8,0-8.7,1.6-11.7,4.7c-3,3.1-5,7.2-5.8,12.3v35.3h-2.7V46h2.2l0.5,9.4v1.8
		c1.5-3.8,3.7-6.8,6.7-9s6.6-3.2,10.9-3.2c0.8,0,1.5,0.1,2.1,0.2c0.6,0.1,1.2,0.2,1.7,0.4L324.5,47.9z"/>
	<path class="st0" d="M337.2,46l0.3,10.8c1.7-3.7,4-6.7,7.2-8.7c3.1-2.1,6.9-3.1,11.5-3.1c5.9,0,10.3,1.8,13.2,5.5
		c2.9,3.7,4.4,9.6,4.4,17.6v31.7h-2.7V68c0-7.5-1.3-12.7-4-15.8c-2.7-3.1-6.3-4.6-10.9-4.6c-5.6,0-10,1.6-12.9,4.9
		c-3,3.3-4.9,7.5-5.7,12.7v34.5h-2.7V72.2h-0.1c0-0.6,0-1.3,0-1.9s0.1-1.3,0.1-2V46H337.2z"/>
</g>
<circle class="st0" cx="267.6" cy="73.6" r="8"/>
<circle class="st0" cx="286.1" cy="56.1" r="4"/>
<circle class="st0" cx="252.1" cy="70.1" r="2"/>
<circle class="st0" cx="248.8" cy="67.9" r="1"/>
<circle class="st1" cx="267.6" cy="73.6" r="25"/>
<circle class="st2" cx="267.6" cy="73.6" r="16"/>
<g>
	<path class="st0" d="M59.1,135.4c-1.3,0-2.4-0.5-3.3-1.5c-0.9-1-1.3-2.3-1.3-3.8v-0.7c0-1.6,0.4-2.9,1.3-4c0.9-1,2-1.6,3.4-1.6
		c1.2,0,2.2,0.4,2.9,1.2c0.7,0.8,1.1,1.9,1.1,3.3v0.9h-8.2v0.1v0.7c0,1.4,0.4,2.5,1.1,3.4c0.8,0.9,1.8,1.4,3,1.4
		c0.7,0,1.3-0.1,1.9-0.4c0.6-0.2,1.1-0.6,1.5-1l0.3,0.4c-0.4,0.4-0.9,0.8-1.5,1.1C60.6,135.2,59.9,135.4,59.1,135.4z M59.1,124.4
		c-1.1,0-2.1,0.4-2.8,1.2c-0.7,0.8-1.1,1.8-1.2,3l0,0.1h7.5v-0.3c0-1.1-0.3-2.1-0.9-2.8C61,124.8,60.2,124.4,59.1,124.4z"/>
	<path class="st0" d="M69.1,129l3.5-4.9h0.7l-3.9,5.4l4.1,5.7h-0.7l-3.8-5.2l-3.8,5.2h-0.7l4.1-5.7l-3.9-5.4h0.7L69.1,129z"/>
	<path class="st0" d="M84.3,129.8c0,1.7-0.4,3.1-1.1,4.1s-1.8,1.5-3.1,1.5c-0.9,0-1.6-0.2-2.3-0.5c-0.6-0.3-1.1-0.8-1.5-1.4v6h-0.6
		v-7.3c0,0,0,0,0-0.1s0,0,0,0v-4.5c0,0,0,0,0,0c0,0,0,0,0-0.1V124h0.4l0.1,2c0.4-0.7,0.9-1.2,1.5-1.6c0.6-0.4,1.4-0.6,2.2-0.6
		c1.3,0,2.3,0.5,3.1,1.6c0.7,1,1.1,2.4,1.1,4.2V129.8z M83.8,129.6c0-1.5-0.3-2.8-0.9-3.7c-0.6-1-1.5-1.4-2.7-1.4
		c-1.1,0-1.9,0.3-2.5,0.8c-0.6,0.5-1,1.2-1.3,1.9v5.3c0.3,0.7,0.7,1.3,1.4,1.7c0.6,0.4,1.4,0.6,2.4,0.6c1.2,0,2.1-0.5,2.7-1.4
		s0.9-2.1,0.9-3.7V129.6z"/>
	<path class="st0" d="M91.2,135.4c-1.3,0-2.4-0.5-3.3-1.5c-0.9-1-1.3-2.3-1.3-3.8v-0.7c0-1.6,0.4-2.9,1.3-4c0.9-1,2-1.6,3.4-1.6
		c1.2,0,2.2,0.4,2.9,1.2c0.7,0.8,1.1,1.9,1.1,3.3v0.9h-8.2v0.1v0.7c0,1.4,0.4,2.5,1.1,3.4c0.8,0.9,1.8,1.4,3,1.4
		c0.7,0,1.3-0.1,1.9-0.4c0.6-0.2,1.1-0.6,1.5-1l0.3,0.4c-0.4,0.4-0.9,0.8-1.5,1.1C92.8,135.2,92.1,135.4,91.2,135.4z M91.3,124.4
		c-1.1,0-2.1,0.4-2.8,1.2c-0.7,0.8-1.1,1.8-1.2,3l0,0.1h7.5v-0.3c0-1.1-0.3-2.1-0.9-2.8C93.2,124.8,92.4,124.4,91.3,124.4z"/>
	<path class="st0" d="M102.9,124.4l-0.7-0.1c-1,0-1.8,0.3-2.4,1c-0.6,0.6-1,1.5-1.2,2.5v7.3H98V124h0.5l0.1,1.9v0.4
		c0.3-0.8,0.8-1.4,1.4-1.9c0.6-0.4,1.4-0.7,2.2-0.7c0.2,0,0.3,0,0.4,0c0.1,0,0.2,0,0.3,0.1L102.9,124.4z"/>
	<path class="st0" d="M105.7,120.6h-0.6v-1.4h0.6V120.6z M105.7,135.1h-0.6V124h0.6V135.1z"/>
	<path class="st0" d="M113.2,135.4c-1.3,0-2.4-0.5-3.3-1.5c-0.9-1-1.3-2.3-1.3-3.8v-0.7c0-1.6,0.4-2.9,1.3-4c0.9-1,2-1.6,3.4-1.6
		c1.2,0,2.2,0.4,2.9,1.2c0.7,0.8,1.1,1.9,1.1,3.3v0.9h-8.2v0.1v0.7c0,1.4,0.4,2.5,1.1,3.4c0.8,0.9,1.8,1.4,3,1.4
		c0.7,0,1.3-0.1,1.9-0.4c0.6-0.2,1.1-0.6,1.5-1l0.3,0.4c-0.4,0.4-0.9,0.8-1.5,1.1C114.8,135.2,114.1,135.4,113.2,135.4z
		 M113.3,124.4c-1.1,0-2.1,0.4-2.8,1.2c-0.7,0.8-1.1,1.8-1.2,3l0,0.1h7.5v-0.3c0-1.1-0.3-2.1-0.9-2.8
		C115.2,124.8,114.4,124.4,113.3,124.4z"/>
	<path class="st0" d="M120.5,124l0.1,2.2c0.3-0.8,0.8-1.4,1.5-1.8c0.6-0.4,1.4-0.6,2.4-0.6c1.2,0,2.1,0.4,2.7,1.1
		c0.6,0.8,0.9,2,0.9,3.6v6.5h-0.6v-6.6c0-1.5-0.3-2.6-0.8-3.3c-0.6-0.6-1.3-0.9-2.2-0.9c-1.2,0-2.1,0.3-2.7,1
		c-0.6,0.7-1,1.5-1.2,2.6v7.1H120v-5.7h0c0-0.1,0-0.3,0-0.4c0-0.1,0-0.3,0-0.4V124H120.5z"/>
	<path class="st0" d="M135.3,134.8c0.9,0,1.8-0.3,2.5-0.8s1.1-1.3,1.1-2.3h0.5l0,0.1c0,1.1-0.4,2-1.2,2.6c-0.8,0.6-1.8,1-2.9,1
		c-1.4,0-2.5-0.5-3.3-1.5s-1.2-2.4-1.2-4v-0.4c0-1.7,0.4-3,1.2-4s1.9-1.5,3.3-1.5c1.1,0,2.1,0.3,2.9,1c0.8,0.7,1.2,1.6,1.2,2.8
		l0,0.1h-0.5c0-1.1-0.3-1.9-1-2.5c-0.7-0.6-1.5-0.9-2.5-0.9c-1.3,0-2.3,0.5-3,1.4s-1,2.1-1,3.6v0.4c0,1.5,0.3,2.7,1,3.6
		C133,134.3,133.9,134.8,135.3,134.8z"/>
	<path class="st0" d="M146,135.4c-1.3,0-2.4-0.5-3.3-1.5c-0.9-1-1.3-2.3-1.3-3.8v-0.7c0-1.6,0.4-2.9,1.3-4c0.9-1,2-1.6,3.4-1.6
		c1.2,0,2.2,0.4,2.9,1.2c0.7,0.8,1.1,1.9,1.1,3.3v0.9h-8.2v0.1v0.7c0,1.4,0.4,2.5,1.1,3.4c0.8,0.9,1.8,1.4,3,1.4
		c0.7,0,1.3-0.1,1.9-0.4c0.6-0.2,1.1-0.6,1.5-1l0.3,0.4c-0.4,0.4-0.9,0.8-1.5,1.1C147.6,135.2,146.9,135.4,146,135.4z M146.1,124.4
		c-1.1,0-2.1,0.4-2.8,1.2c-0.7,0.8-1.1,1.8-1.2,3l0,0.1h7.5v-0.3c0-1.1-0.3-2.1-0.9-2.8C148,124.8,147.2,124.4,146.1,124.4z"/>
	<path class="st0" d="M158.5,135.1H158v-16h0.6V135.1z"/>
	<path class="st0" d="M162.8,120.6h-0.6v-1.4h0.6V120.6z M162.8,135.1h-0.6V124h0.6V135.1z"/>
	<path class="st0" d="M167.3,135.1v-10.5h-1.9V124h1.9v-1.8c0-1,0.3-1.9,0.8-2.4c0.5-0.6,1.2-0.9,2.1-0.9c0.2,0,0.5,0,0.7,0
		c0.2,0,0.4,0.1,0.6,0.1l-0.1,0.5c-0.2-0.1-0.4-0.1-0.6-0.1c-0.2,0-0.4,0-0.6,0c-0.7,0-1.3,0.2-1.7,0.7s-0.6,1.2-0.6,2v1.8h2.9v0.6
		h-2.9v10.5H167.3z"/>
	<path class="st0" d="M176.7,135.4c-1.3,0-2.4-0.5-3.3-1.5c-0.9-1-1.3-2.3-1.3-3.8v-0.7c0-1.6,0.4-2.9,1.3-4c0.9-1,2-1.6,3.4-1.6
		c1.2,0,2.2,0.4,2.9,1.2c0.7,0.8,1.1,1.9,1.1,3.3v0.9h-8.2v0.1v0.7c0,1.4,0.4,2.5,1.1,3.4c0.8,0.9,1.7,1.4,3,1.4
		c0.7,0,1.3-0.1,1.9-0.4c0.6-0.2,1.1-0.6,1.5-1l0.3,0.4c-0.4,0.4-0.9,0.8-1.5,1.1C178.3,135.2,177.6,135.4,176.7,135.4z
		 M176.8,124.4c-1.1,0-2.1,0.4-2.8,1.2c-0.7,0.8-1.2,1.8-1.2,3l0,0.1h7.5v-0.3c0-1.1-0.3-2.1-0.9-2.8
		C178.7,124.8,177.9,124.4,176.8,124.4z"/>
	<path class="st0" d="M191.1,126.9c-0.6-0.7-1-1.3-1.2-1.9c-0.3-0.6-0.4-1.2-0.4-1.8c0-1,0.3-1.8,0.8-2.4c0.6-0.6,1.3-0.8,2.3-0.8
		c0.9,0,1.6,0.2,2.1,0.7s0.7,1.1,0.7,1.9c0,0.6-0.1,1.1-0.4,1.5c-0.3,0.4-0.6,0.8-1.1,1.2l-2.1,1.7l4.9,5.5c0.4-0.5,0.7-1.1,0.9-1.8
		c0.2-0.6,0.3-1.3,0.3-2.1h0.6c0,0.9-0.1,1.6-0.4,2.3c-0.2,0.7-0.6,1.3-1,1.9l1.9,2.2l0,0.1h-0.6l-1.6-1.8c0,0-0.1,0.1-0.1,0.1
		c0,0,0,0,0,0.1c-0.6,0.6-1.3,1.1-1.9,1.4c-0.7,0.3-1.4,0.5-2.3,0.5c-1.4,0-2.5-0.3-3.3-1c-0.8-0.7-1.2-1.6-1.2-2.8
		c0-0.8,0.2-1.5,0.7-2.2c0.5-0.7,1.1-1.3,1.9-2L191.1,126.9z M192.4,134.8c0.8,0,1.5-0.2,2.2-0.5c0.7-0.3,1.3-0.8,1.8-1.4l-4.6-5.2
		c-0.1-0.1-0.1-0.1-0.2-0.2c-0.1-0.1-0.1-0.1-0.2-0.2l-0.5,0.4c-0.9,0.8-1.6,1.5-1.9,2.1c-0.3,0.6-0.5,1.2-0.5,1.7
		c0,0.9,0.3,1.7,1,2.3C190.2,134.5,191.1,134.8,192.4,134.8z M190,123.2c0,0.5,0.1,1.1,0.4,1.7s0.6,1.2,1.1,1.8l2.1-1.7
		c0.4-0.3,0.7-0.7,0.9-1.1c0.2-0.4,0.3-0.7,0.3-1.1c0-0.6-0.2-1.2-0.6-1.5c-0.4-0.4-0.9-0.6-1.7-0.6c-0.8,0-1.5,0.2-1.9,0.7
		C190.2,121.8,190,122.4,190,123.2z"/>
	<path class="st0" d="M205.8,129.6c0-1.8,0.4-3.2,1.1-4.2c0.7-1,1.8-1.6,3.1-1.6c0.9,0,1.6,0.2,2.2,0.6c0.6,0.4,1.1,0.9,1.5,1.6
		v-6.9h0.6v8.3c0,0,0,0,0,0s0,0,0,0v4.5c0,0,0,0,0,0s0,0,0,0v3.1h-0.5l0-1.7c-0.4,0.6-0.9,1.1-1.5,1.4c-0.6,0.3-1.4,0.5-2.3,0.5
		c-1.3,0-2.3-0.5-3.1-1.5c-0.7-1-1.1-2.4-1.1-4.1V129.6z M206.4,129.8c0,1.5,0.3,2.7,0.9,3.7c0.6,0.9,1.5,1.4,2.7,1.4
		c1,0,1.8-0.2,2.4-0.7c0.6-0.4,1.1-1,1.4-1.7v-5.3c-0.3-0.8-0.7-1.4-1.3-2c-0.6-0.5-1.4-0.8-2.5-0.8c-1.2,0-2.1,0.5-2.7,1.4
		c-0.6,1-0.9,2.2-0.9,3.7V129.8z"/>
	<path class="st0" d="M221.7,135.4c-1.3,0-2.4-0.5-3.3-1.5c-0.9-1-1.3-2.3-1.3-3.8v-0.7c0-1.6,0.4-2.9,1.3-4c0.9-1,2-1.6,3.4-1.6
		c1.2,0,2.2,0.4,2.9,1.2c0.7,0.8,1.1,1.9,1.1,3.3v0.9h-8.2v0.1v0.7c0,1.4,0.4,2.5,1.1,3.4c0.8,0.9,1.7,1.4,3,1.4
		c0.7,0,1.3-0.1,1.9-0.4c0.6-0.2,1.1-0.6,1.5-1l0.3,0.4c-0.4,0.4-0.9,0.8-1.5,1.1C223.3,135.2,222.6,135.4,221.7,135.4z
		 M221.8,124.4c-1.1,0-2.1,0.4-2.8,1.2c-0.7,0.8-1.2,1.8-1.2,3l0,0.1h7.5v-0.3c0-1.1-0.3-2.1-0.9-2.8
		C223.7,124.8,222.9,124.4,221.8,124.4z"/>
	<path class="st0" d="M235.5,133.1c-0.4,0.7-1,1.2-1.7,1.6c-0.8,0.4-1.7,0.6-2.8,0.6c-1,0-1.8-0.3-2.4-0.8c-0.6-0.6-0.9-1.3-0.9-2.3
		c0-0.9,0.4-1.7,1.3-2.3c0.9-0.6,2-0.9,3.3-0.9h3.2v-1.6c0-0.9-0.3-1.6-0.9-2.2c-0.6-0.5-1.4-0.8-2.5-0.8c-1,0-1.8,0.2-2.4,0.7
		c-0.6,0.5-0.9,1.1-0.9,1.9l-0.5,0l0-0.1c0-0.9,0.3-1.6,1-2.2c0.7-0.6,1.7-0.9,2.8-0.9c1.2,0,2.1,0.3,2.9,0.9s1.1,1.5,1.1,2.6v5.6
		c0,0.4,0,0.8,0.1,1.1c0,0.4,0.1,0.7,0.2,1.1h-0.6c-0.1-0.5-0.1-0.8-0.2-1.1c0-0.2,0-0.5,0-0.8V133.1z M231,134.8
		c1.1,0,2-0.2,2.8-0.7c0.8-0.5,1.3-1.2,1.7-2.1v-2.5h-3.1c-1.1,0-2.1,0.3-2.9,0.8c-0.8,0.5-1.2,1.2-1.2,2c0,0.7,0.3,1.4,0.8,1.8
		C229.5,134.6,230.1,134.8,231,134.8z"/>
	<path class="st0" d="M240.7,121.1v3h2.7v0.6h-2.7v7.7c0,0.9,0.2,1.6,0.5,1.9c0.3,0.4,0.7,0.6,1.2,0.6c0.2,0,0.3,0,0.5,0
		c0.1,0,0.3,0,0.6-0.1l0.1,0.5c-0.2,0.1-0.3,0.1-0.5,0.1s-0.4,0-0.6,0c-0.7,0-1.3-0.2-1.7-0.7c-0.4-0.5-0.6-1.3-0.6-2.3v-7.7h-2.1
		V124h2.1v-3H240.7z"/>
	<path class="st0" d="M246.6,126.4c0.3-0.8,0.9-1.4,1.5-1.9c0.7-0.4,1.5-0.7,2.4-0.7c1.2,0,2,0.4,2.6,1.1c0.6,0.7,0.9,1.9,0.9,3.5
		v6.7h-0.6v-6.8c0-1.5-0.3-2.5-0.8-3.1c-0.5-0.6-1.3-0.9-2.1-0.9c-1.2,0-2.1,0.3-2.7,1c-0.6,0.7-1,1.6-1.2,2.7v7.1h-0.6v-5.7h0
		c0-0.1,0-0.3,0-0.4s0-0.2,0-0.3v-9.7h0.6V126.4z"/>
	<path class="st0" d="M261.7,129.4c0-1.6,0.4-3,1.3-4c0.9-1,2.1-1.5,3.5-1.5c1.4,0,2.6,0.5,3.5,1.5c0.9,1,1.3,2.4,1.3,4v0.4
		c0,1.6-0.4,3-1.3,4c-0.9,1-2.1,1.5-3.5,1.5c-1.4,0-2.6-0.5-3.5-1.5s-1.4-2.4-1.4-4V129.4z M262.3,129.8c0,1.4,0.4,2.6,1.2,3.5
		c0.8,1,1.8,1.5,3.1,1.5c1.3,0,2.3-0.5,3.1-1.5c0.8-1,1.2-2.1,1.2-3.5v-0.4c0-1.4-0.4-2.5-1.2-3.5c-0.8-1-1.8-1.5-3.1-1.5
		c-1.3,0-2.3,0.5-3.1,1.5c-0.8,1-1.2,2.2-1.2,3.5V129.8z"/>
	<path class="st0" d="M274.9,135.1v-10.5H273V124h1.9v-1.8c0-1,0.3-1.9,0.8-2.4c0.5-0.6,1.2-0.9,2.1-0.9c0.2,0,0.5,0,0.7,0
		c0.2,0,0.4,0.1,0.6,0.1l-0.1,0.5c-0.2-0.1-0.4-0.1-0.6-0.1c-0.2,0-0.4,0-0.6,0c-0.7,0-1.3,0.2-1.7,0.7s-0.6,1.2-0.6,2v1.8h2.9v0.6
		h-2.9v10.5H274.9z"/>
	<path class="st0" d="M292.7,133.1c-0.4,0.7-1,1.2-1.7,1.6c-0.8,0.4-1.7,0.6-2.8,0.6c-1,0-1.8-0.3-2.4-0.8c-0.6-0.6-0.9-1.3-0.9-2.3
		c0-0.9,0.4-1.7,1.3-2.3c0.9-0.6,2-0.9,3.3-0.9h3.2v-1.6c0-0.9-0.3-1.6-0.9-2.2c-0.6-0.5-1.4-0.8-2.5-0.8c-1,0-1.8,0.2-2.4,0.7
		c-0.6,0.5-0.9,1.1-0.9,1.9l-0.5,0l0-0.1c0-0.9,0.3-1.6,1-2.2c0.7-0.6,1.7-0.9,2.8-0.9c1.2,0,2.1,0.3,2.9,0.9s1.1,1.5,1.1,2.6v5.6
		c0,0.4,0,0.8,0.1,1.1c0,0.4,0.1,0.7,0.2,1.1h-0.6c-0.1-0.5-0.1-0.8-0.2-1.1c0-0.2,0-0.5,0-0.8V133.1z M288.2,134.8
		c1.1,0,2-0.2,2.8-0.7c0.8-0.5,1.3-1.2,1.7-2.1v-2.5h-3.1c-1.1,0-2.1,0.3-2.9,0.8c-0.8,0.5-1.2,1.2-1.2,2c0,0.7,0.3,1.4,0.8,1.8
		C286.7,134.6,287.4,134.8,288.2,134.8z"/>
	<path class="st0" d="M308.6,132.4c0-0.6-0.3-1.1-0.8-1.6c-0.5-0.5-1.4-0.9-2.6-1.1c-1.3-0.3-2.3-0.6-2.9-1.1
		c-0.6-0.4-0.9-1.1-0.9-2c0-0.8,0.3-1.5,1-2c0.7-0.5,1.6-0.8,2.7-0.8c1.2,0,2.2,0.3,2.9,0.9c0.7,0.6,1,1.3,1,2.2l0,0.1h-0.5
		c0-0.7-0.3-1.3-0.9-1.9c-0.6-0.5-1.4-0.8-2.5-0.8c-1,0-1.8,0.2-2.4,0.7c-0.5,0.4-0.8,1-0.8,1.6c0,0.6,0.2,1.1,0.7,1.5
		s1.3,0.8,2.7,1.1c1.2,0.3,2.2,0.7,2.8,1.2c0.6,0.5,1,1.2,1,2.1c0,0.9-0.4,1.6-1.1,2.1s-1.7,0.8-2.8,0.8c-1.3,0-2.3-0.3-3-0.9
		c-0.7-0.6-1.1-1.3-1-2.1l0-0.1h0.5c0.1,0.9,0.4,1.5,1.1,1.9s1.5,0.6,2.5,0.6c1,0,1.8-0.2,2.4-0.7
		C308.3,133.6,308.6,133.1,308.6,132.4z"/>
	<path class="st0" d="M313.4,121.1v3h2.7v0.6h-2.7v7.7c0,0.9,0.2,1.6,0.5,1.9c0.3,0.4,0.7,0.6,1.2,0.6c0.2,0,0.3,0,0.5,0
		c0.1,0,0.3,0,0.6-0.1l0.1,0.5c-0.2,0.1-0.3,0.1-0.5,0.1s-0.4,0-0.6,0c-0.7,0-1.3-0.2-1.7-0.7c-0.4-0.5-0.6-1.3-0.6-2.3v-7.7h-2.1
		V124h2.1v-3H313.4z"/>
	<path class="st0" d="M325.7,133.1c-0.4,0.7-1,1.2-1.7,1.6c-0.8,0.4-1.7,0.6-2.8,0.6c-1,0-1.8-0.3-2.4-0.8c-0.6-0.6-0.9-1.3-0.9-2.3
		c0-0.9,0.4-1.7,1.3-2.3c0.9-0.6,2-0.9,3.3-0.9h3.2v-1.6c0-0.9-0.3-1.6-0.9-2.2c-0.6-0.5-1.4-0.8-2.5-0.8c-1,0-1.8,0.2-2.4,0.7
		c-0.6,0.5-0.9,1.1-0.9,1.9l-0.5,0l0-0.1c0-0.9,0.3-1.6,1-2.2c0.7-0.6,1.7-0.9,2.8-0.9c1.2,0,2.1,0.3,2.9,0.9s1.1,1.5,1.1,2.6v5.6
		c0,0.4,0,0.8,0.1,1.1c0,0.4,0.1,0.7,0.2,1.1h-0.6c-0.1-0.5-0.1-0.8-0.2-1.1c0-0.2,0-0.5,0-0.8V133.1z M321.3,134.8
		c1.1,0,2-0.2,2.8-0.7c0.8-0.5,1.3-1.2,1.7-2.1v-2.5h-3.1c-1.1,0-2.1,0.3-2.9,0.8c-0.8,0.5-1.2,1.2-1.2,2c0,0.7,0.3,1.4,0.8,1.8
		C319.8,134.6,320.4,134.8,321.3,134.8z"/>
	<path class="st0" d="M334.7,124.4l-0.7-0.1c-1,0-1.8,0.3-2.4,1c-0.6,0.6-1,1.5-1.2,2.5v7.3h-0.6V124h0.5l0.1,1.9v0.4
		c0.3-0.8,0.8-1.4,1.4-1.9c0.6-0.4,1.4-0.7,2.2-0.7c0.2,0,0.3,0,0.4,0c0.1,0,0.2,0,0.3,0.1L334.7,124.4z"/>
</g>
<rect x="101.5" y="111.1" class="st0" width="182.1" height="1"/>
</svg>
